<?xml version="1.0" encoding="UTF-8"?>
<svg xmlns="http://www.w3.org/2000/svg" xmlns:xlink="http://www.w3.org/1999/xlink" width="485pt" height="251pt" viewBox="0 0 485 251" version="1.1">
<defs>
<clipPath id="clip2">
  <rect x="0" y="0" width="93" height="48"/>
</clipPath>
<g id="surface780" clip-path="url(#clip2)">
<path style="fill:none;stroke-width:1;stroke-linecap:butt;stroke-linejoin:miter;stroke:rgb(0%,0%,0%);stroke-opacity:1;stroke-miterlimit:4;" d="M 0.201305 35.870351 L 80.528698 0.457418 " transform="matrix(1.144875,0,0,1.161409,0,0)"/>
<path style="fill:none;stroke-width:1;stroke-linecap:butt;stroke-linejoin:miter;stroke:rgb(0%,0%,0%);stroke-opacity:1;stroke-miterlimit:4;" d="M 0.70286 40.871683 L 81.030254 5.458751 " transform="matrix(1.144875,0,0,1.161409,0,0)"/>
</g>
<pattern id="pattern1" patternUnits="userSpaceOnUse" width="93" height="48" patternTransform="matrix(-0.000000000000000186,-1.021505,1,-0.000000000000000185,0.000000000000017331,95.00001)">
<use xlink:href="#surface780"/>
</pattern>
<clipPath id="clip1">
  <rect x="0" y="0" width="48" height="95"/>
</clipPath>
<g id="surface782" clip-path="url(#clip1)">
<rect x="0" y="0" width="48" height="95" style="fill:url(#pattern1);stroke:none;"/>
</g>
<pattern id="pattern0" patternUnits="userSpaceOnUse" width="48" height="95" patternTransform="matrix(1.007419,0,0,1.000453,-228.40244,-238.459212)">
<use xlink:href="#surface782"/>
</pattern>
<clipPath id="clip3">
  <rect x="0" y="0" width="95" height="48"/>
</clipPath>
<g id="surface785" clip-path="url(#clip3)">
<path style="fill:none;stroke-width:1;stroke-linecap:butt;stroke-linejoin:miter;stroke:rgb(0%,0%,0%);stroke-opacity:1;stroke-miterlimit:4;" d="M 0.200407 35.870351 L 80.530132 0.457418 " transform="matrix(1.169496,0,0,1.161409,0,0)"/>
<path style="fill:none;stroke-width:1;stroke-linecap:butt;stroke-linejoin:miter;stroke:rgb(0%,0%,0%);stroke-opacity:1;stroke-miterlimit:4;" d="M 0.701424 40.871683 L 81.031149 5.458751 " transform="matrix(1.169496,0,0,1.161409,0,0)"/>
</g>
<pattern id="pattern2" patternUnits="userSpaceOnUse" width="95" height="48" patternTransform="matrix(1.000453,0,0,1.007419,-436.289692,86.526221)">
<use xlink:href="#surface785"/>
</pattern>
</defs>
<g id="surface775">
<path style=" stroke:none;fill-rule:nonzero;fill:url(#pattern0);" d="M 1.171875 249.890625 L 1.171875 1.597656 C 61.101562 189.363281 375.269531 80.46875 483.347656 249.886719 Z M 1.171875 249.890625 "/>
<path style=" stroke:none;fill-rule:nonzero;fill:url(#pattern2);" d="M 1.171875 1.597656 C 32.15625 161.925781 431.191406 141.261719 483.347656 249.886719 L 483.347656 1.597656 Z M 1.171875 1.597656 "/>
<path style=" stroke:none;fill-rule:nonzero;fill:rgb(0%,0%,0%);fill-opacity:1;" d="M 68.964844 59.511719 L 54.253906 65.578125 L 54.253906 189.363281 L 68.964844 189.363281 L 68.964844 132.230469 C 69.316406 124.601562 77.453125 114.925781 90.269531 114.925781 C 100.652344 114.925781 106.875 120.117188 106.875 132.914062 L 106.875 189.363281 L 121.605469 189.363281 L 121.605469 131.199219 C 121.605469 113.1875 110.855469 102.789062 94.757812 102.789062 C 83.167969 102.789062 73.980469 108.855469 69.140625 117.34375 L 68.964844 117.34375 Z M 68.964844 59.511719 "/>
<path style=" stroke:none;fill-rule:nonzero;fill:rgb(0%,0%,0%);fill-opacity:1;" d="M 209.355469 160.796875 C 209.882812 148.503906 209.882812 144.347656 209.355469 133.617188 C 208.496094 115.257812 195.519531 102.789062 176.125 102.789062 C 156.554688 102.789062 143.582031 115.257812 142.703125 133.617188 C 142.195312 144.347656 142.195312 147.472656 142.703125 160.796875 C 143.40625 179.3125 157.082031 191.957031 176.125 191.957031 C 195.167969 191.957031 208.496094 179.3125 209.355469 160.796875 Z M 194.644531 133.96875 C 194.996094 144.699219 194.996094 151.277344 194.644531 160.445312 C 194.136719 171.527344 187.035156 179.839844 176.125 179.839844 C 165.042969 179.839844 157.941406 171.527344 157.433594 160.269531 C 157.082031 151.453125 157.082031 144.699219 157.433594 133.96875 C 157.765625 122.535156 165.042969 114.925781 176.125 114.925781 C 187.210938 114.925781 194.3125 122.710938 194.644531 133.96875 Z M 194.644531 133.96875 "/>
<path style=" stroke:none;fill-rule:nonzero;fill:rgb(0%,0%,0%);fill-opacity:1;" d="M 235.664062 189.363281 L 250.394531 189.363281 L 250.394531 135.179688 C 250.394531 123.238281 258.355469 114.925781 269.085938 114.925781 C 278.082031 114.925781 283.449219 119.765625 283.449219 133.089844 L 283.449219 189.363281 L 298.160156 189.363281 L 298.160156 135.003906 C 298.160156 123.570312 305.789062 114.925781 316.871094 114.925781 C 327.601562 114.925781 331.230469 122.183594 331.230469 132.914062 L 331.230469 189.363281 L 345.945312 189.363281 L 345.945312 129.988281 C 345.945312 112.332031 335.210938 102.789062 321.359375 102.789062 C 309.242188 102.789062 299.546875 109.714844 295.410156 118.554688 L 295.058594 118.554688 C 292.109375 108 283.800781 102.789062 273.242188 102.789062 C 263.898438 102.789062 254.199219 107.824219 249.339844 116.992188 L 249.164062 116.992188 C 247.625 108.332031 241.027344 104.527344 233.769531 104.527344 C 230.648438 104.527344 228.054688 105.050781 225.28125 106.261719 L 225.28125 115.785156 C 232.035156 115.785156 235.664062 116.816406 235.664062 123.746094 Z M 235.664062 189.363281 "/>
<path style=" stroke:none;fill-rule:nonzero;fill:rgb(0%,0%,0%);fill-opacity:1;" d="M 415.023438 147.121094 C 427.824219 144.347656 430.261719 142.789062 430.261719 131.375 C 430.261719 114.222656 419.179688 102.789062 400.816406 102.789062 C 379.882812 102.789062 368.625 117.167969 367.765625 135.003906 C 367.414062 143.140625 367.414062 148.503906 367.765625 160.796875 C 368.273438 179.3125 380.390625 191.957031 400.816406 191.957031 C 420.039062 191.957031 430.769531 178.808594 430.085938 165.128906 L 417.96875 164.25 C 416.757812 172.914062 411.550781 179.839844 400.816406 179.839844 C 389.734375 179.839844 382.300781 172.386719 382.300781 158.203125 L 382.300781 152.660156 C 382.300781 152.660156 402.027344 149.890625 415.023438 147.121094 Z M 382.300781 137.773438 C 382.300781 124.445312 387.84375 114.925781 400.816406 114.925781 C 410.164062 114.925781 415.53125 121.148438 415.53125 131.023438 C 415.53125 135.6875 414.320312 137.246094 406.710938 138.984375 C 394.769531 141.578125 382.300781 143.140625 382.300781 143.140625 Z M 382.300781 137.773438 "/>
<path style="fill:none;stroke-width:0.529167;stroke-linecap:butt;stroke-linejoin:miter;stroke:rgb(0%,0%,0%);stroke-opacity:1;stroke-miterlimit:4;" d="M 94.547328 172.648463 L 175.576825 172.648463 C 183.310451 172.648463 189.580385 174.060037 189.580385 175.802863 L 189.580385 225.639921 C 189.580385 227.382748 183.310451 228.795205 175.576825 228.795205 L 94.547328 228.795205 C 86.813702 228.795205 80.543768 227.382748 80.543768 225.639921 L 80.543768 175.802863 C 80.543768 174.060037 86.813702 172.648463 94.547328 172.648463 Z M 94.547328 172.648463 " transform="matrix(4.422145,0,0,4.422145,-355.004381,-761.878956)"/>
<path style="fill:none;stroke-width:0.529167;stroke-linecap:butt;stroke-linejoin:miter;stroke:rgb(0%,0%,0%);stroke-opacity:1;stroke-miterlimit:4;" d="M 95.567584 173.749985 L 174.556569 173.749985 C 182.095861 173.749985 188.206794 175.106793 188.206794 176.781602 L 188.206794 224.662066 C 188.206794 226.335992 182.095861 227.692799 174.556569 227.692799 L 95.567584 227.692799 C 88.028292 227.692799 81.916475 226.335992 81.916475 224.662066 L 81.916475 176.781602 C 81.916475 175.106793 88.028292 173.749985 95.567584 173.749985 Z M 95.567584 173.749985 " transform="matrix(4.422145,0,0,4.422145,-355.004381,-761.878956)"/>
</g>
</svg>
